<svg xmlns="http://www.w3.org/2000/svg" xmlns:xlink="http://www.w3.org/1999/xlink" viewBox="0 0 240 63.853">
    <defs>
        <clipPath id="a">
            <rect width="240" height="63.853" transform="translate(286 27)" fill="#474e5f" />
        </clipPath>
        <linearGradient id="b" x1="1.148" y1="0.07" x2="-0.459" y2="1.38" gradientUnits="objectBoundingBox">
            <stop offset="0" stop-color="#585ee6" />
            <stop offset="1" stop-color="#b9a0ff" />
        </linearGradient>
    </defs>
    <g transform="translate(-286 -27)" clip-path="url(#a)">
        <g transform="translate(83.561 -111.114)">
            <g transform="translate(160.754 40.063)">
                <path d="M97.084,119.171h8.15q.648,0,.481.793l-.644,3.029a.9.9,0,0,1-.962.793H97.329a.64.64,0,0,0-.7.576l-2.394,11.194q-.061.692.556.779h6.794q.648,0,.54.5l-.721,3.389q-.122.576-.556.576H91.62a4.183,4.183,0,0,1-2.346-1.513,4.512,4.512,0,0,1-.589-3.678l2.408-11.395.091-.36a6.645,6.645,0,0,1,2.045-3.173,6.2,6.2,0,0,1,3.624-1.441Z" fill="#282e34" />
                <path d="M111.581,119.171h7.14a3.809,3.809,0,0,1,2.2,1.513,3.99,3.99,0,0,1,.561,2.452l-.342,1.945-1.962,9.232q-.813,3.823-1.39,3.823a7.429,7.429,0,0,1-2.814,2.38l-.855.288h-7.14a4.179,4.179,0,0,1-2.606-2.668,4.735,4.735,0,0,1,.1-2.164l2.56-12.044A6.077,6.077,0,0,1,111.581,119.171Zm.642,5.121-2.3,10.818q-.291,1.369.574,1.369,2.709.144,2.894-.721l.21-.648,2.253-10.6q.3-1.081-.6-1.225h-2.164a1.064,1.064,0,0,0-.864,1.009Z" fill="#282e34" />
                <path d="M124.779,119.171H131.7q.336.317.843,5.193l.878,7.068h.216l2.472-11.7q.25-.563.423-.563h4.9l.17.216-4.507,21.2-.262.216h-6.707q-.462,0-.434-1.009l-1.416-11.323h-.216l-.138.648-2.361,11.106q-.122.576-.555.576h-4.831l-.17-.216,4.507-21.2Z" fill="#282e34" />
                <path d="M144.035,119.171h4.472q.317,0,.052,6.2l-.1,9.3.057.072h.144q.288,0,1.6-3.462,3.873-9.736,4.94-12.044l.3-.072h4.255l.113.144-.015.072-7.762,18.535q-1.205,2.885-1.477,2.885h-6.564q-.332,0-.2-4.832-.156-10.8-.1-16.516l.015-.072Z" fill="#282e34" />
                <path d="M162.354,119.171h12.478l.17.216-.69,3.245a.571.571,0,0,1-.612.5h-7.14a.489.489,0,0,0-.525.432l-.8,3.751.17.216h6.058q.648,0,.54.5l-.659,3.1a.489.489,0,0,1-.525.432h-6.058a.488.488,0,0,0-.525.432l-.767,3.606q-.26,1.227,1.615,1.225h6.058q.5,0,.4.5l-.69,3.246-.262.216h-9.3a3.8,3.8,0,0,1-2.641-2.164,5.786,5.786,0,0,1-.123-2.813l3.357-15.795Q162.066,119.171,162.354,119.171Z" fill="#282e34" />
                <path d="M177.789,119.171H187.6a4.064,4.064,0,0,1,2.63,1.873q.66.967.1,3.606l-.353,1.657a5.438,5.438,0,0,1-1.555,3.246l-.365.36-.031.144a3.537,3.537,0,0,1,.552,3.173l-1.518,7.14a.8.8,0,0,1-.669.432h-4.038q-.576,0-.439-.648l1.487-7q.044-1.225-.965-1.225h-2.019l-.35.288-1.657,7.789q-.169.793-.746.793h-4.066q-.418,0-.439-.648l4.371-20.771Zm4.113,4.4-.9,4.256.17.216H183.4q.851,0,1.358-1.3l.491-2.308a1.047,1.047,0,0,0-1.2-1.153h-1.8Z" fill="#282e34" />
                <path d="M194.232,119.171h13.631l.17.216-.735,3.39q-.195.576-.628.576h-3.519a.57.57,0,0,0-.612.5l-3.48,16.373q-.122.576-.555.576h-4.326q-.5,0-.352-.721l2.774-13.054.721-3.39-.343-.288H193.56q-.712-.044-.651-.332l.659-3.1.052-.245a.654.654,0,0,1,.612-.5Z" fill="#282e34" />
                <path d="M206.444,135.686h4.616l.17.216-1,4.688-.262.216h-4.616l-.17-.216,1-4.688Z" fill="#282e34" />
                <path d="M216.951,119.171h13.631l.17.216-.735,3.39q-.195.576-.627.576h-3.52a.57.57,0,0,0-.612.5l-3.48,16.371q-.122.576-.556.576H216.9q-.5,0-.352-.721l2.774-13.054.721-3.39-.343-.288h-3.418q-.712-.044-.651-.332l.659-3.1.052-.245a.654.654,0,0,1,.613-.5Z" fill="#282e34" />
                <path d="M233.25,119.171h12.477l.17.216-.69,3.245a.57.57,0,0,1-.612.5h-7.14a.488.488,0,0,0-.525.432l-.8,3.751.171.216h6.058q.648,0,.54.5l-.659,3.1a.489.489,0,0,1-.525.432h-6.057a.489.489,0,0,0-.525.432l-.767,3.606q-.26,1.227,1.615,1.225h6.058q.5,0,.4.5l-.69,3.246-.262.216h-9.3a3.8,3.8,0,0,1-2.641-2.164,5.785,5.785,0,0,1-.123-2.813l3.357-15.795Q232.961,119.171,233.25,119.171Z" fill="#282e34" />
                <path d="M253.386,119.171h8.15q.648,0,.481.793l-.644,3.028a.9.9,0,0,1-.962.793h-6.78a.64.64,0,0,0-.7.576l-2.394,11.193q-.061.692.556.779h6.794q.648,0,.54.5l-.721,3.389q-.122.576-.555.576h-9.23a4.183,4.183,0,0,1-2.347-1.513,4.516,4.516,0,0,1-.589-3.678l2.408-11.395.091-.36a6.646,6.646,0,0,1,2.044-3.173,6.2,6.2,0,0,1,3.624-1.441Z" fill="#282e34" />
                <path d="M264.637,119.171h5.555l.17.216-1.671,7.861.155.288h4.9l.262-.216,1.686-7.934.263-.216h5.553l.17.216L277.3,140.157a.7.7,0,0,1-.715.648h-4.79q-.576,0-.439-.648l1.7-8.006q-.011-.288-.371-.288h-4.76l-.263.216-1.716,8.006q-.153.721-.658.721h-4.962q-.576,0-.439-.648l4.323-20.338Q264.327,119.272,264.637,119.171Z" fill="#282e34" />
            </g>
            <path d="M7955.21,4212.834h-17.136a3.607,3.607,0,0,1-3.1-1.771l-8.5-14.411a3.6,3.6,0,0,1,0-3.662l8.5-14.41a3.609,3.609,0,0,1,3.1-1.772h17.136a3.6,3.6,0,0,1,3.1,1.771l8.463,14.343h-18.791l-5.409-8.688a.946.946,0,0,0-1.3-.3l-1.6,1.006a.948.948,0,0,0-.3,1.308l4.91,7.884v1.018l-4.909,7.884a.951.951,0,0,0,.3,1.308l1.6,1.006a.944.944,0,0,0,1.3-.3l5.183-8.326h19.017l-8.463,14.345a3.6,3.6,0,0,1-3.1,1.771Z" transform="translate(-7723.529 -4024.78)" fill="url(#b)" />
        </g>
    </g>
</svg>