<svg xmlns="http://www.w3.org/2000/svg" viewBox="0 0 240 63.853">
    <defs>
        <clipPath id="a">
            <path transform="translate(286 27)" fill="#fff" d="M0 0h240v63.853H0z" />
        </clipPath>
    </defs>
    <g transform="translate(-286 -27)" clip-path="url(#a)">
        <g fill="#fff">
            <path d="M466.141 90.854H346.417v-16.96h2v14.965H464.15V73.894h1.995v16.96zm0-46.891h-1.995V29.001H348.417v14.965h-2V27.001H466.14v16.961zM434.487 68.988h.128v-.193zm.128.577v-.577H435a5.953 5.953 0 001.427-.1q.625-.128.721-.994.032-.289.064-1.2t.048-2.212q.016-1.3.016-2.886v-3.222q0-1.763-.016-3.479t-.032-3.062q-.016-1.347-.064-2.2a3.138 3.138 0 00-.112-.914h-2.34v-.545h6.188l5.034 14.46 5-14.46h5.258v.545h-1.731v20.304h1.731v.542h-7.406v-.577h1.8l.032-17.121-.256-.064q-1.475 4.36-2.966 8.7t-3.03 8.7l-6.284-17.794-.256.064v15.9a2.7 2.7 0 00.064.641.813.813 0 00.289.593 1.628 1.628 0 00.625.3 3.036 3.036 0 00.769.1h1.01v.558zm31.869-21.8a6.076 6.076 0 013.35.978 9.365 9.365 0 012.63 2.563 12.681 12.681 0 011.715 3.591 13.768 13.768 0 01.609 4.026 13.557 13.557 0 01-.609 4.021 12.3 12.3 0 01-1.715 3.527 9.329 9.329 0 01-2.629 2.517 6.15 6.15 0 01-3.35.962 6.209 6.209 0 01-3.4-.978 9.016 9.016 0 01-2.629-2.581 13.145 13.145 0 01-1.7-3.623 14.139 14.139 0 01-.609-4.1 12.308 12.308 0 01.657-3.944 12.557 12.557 0 011.8-3.495 9.93 9.93 0 012.645-2.5 5.91 5.91 0 013.235-.966zm.064.513a2.945 2.945 0 00-1.763.529 4.467 4.467 0 00-1.25 1.411 8.333 8.333 0 00-.816 1.985 19.526 19.526 0 00-.481 2.276q-.176 1.17-.24 2.308t-.064 2.036q0 .93.048 2.068t.208 2.308a20.211 20.211 0 00.449 2.292 8.245 8.245 0 00.786 2 4.3 4.3 0 001.232 1.416 3 3 0 001.8.529 2.936 2.936 0 001.8-.545 4.3 4.3 0 001.209-1.426 7.764 7.764 0 00.737-2.02 20.8 20.8 0 00.385-2.308q.128-1.17.16-2.308t.032-2.036q0-.8-.048-1.892t-.213-2.245q-.16-1.154-.433-2.308a8.434 8.434 0 00-.753-2.052 4.847 4.847 0 00-1.154-1.459 2.47 2.47 0 00-1.631-.561zm10.228-.1h6.637a17.265 17.265 0 014.264.513 9.107 9.107 0 013.542 1.749 8.5 8.5 0 012.421 3.318 13.161 13.161 0 01.9 5.194 13.249 13.249 0 01-.85 5.082 8.316 8.316 0 01-2.308 3.254 8.868 8.868 0 01-3.4 1.747 15.724 15.724 0 01-4.153.53h-7.053v-.542h1.827V48.757h-1.827zm5.611.577v20.268a10.536 10.536 0 003.879-.625 5.749 5.749 0 002.533-1.911 8.155 8.155 0 001.379-3.222 21.98 21.98 0 00.417-4.569 16.647 16.647 0 00-.449-3.976 9.547 9.547 0 00-1.363-3.158 6.536 6.536 0 00-2.308-2.084 6.814 6.814 0 00-3.287-.755zM495.5 69.023a5.675 5.675 0 001.154-.1 1.586 1.586 0 00.737-.353 1.911 1.911 0 00.481-.753q.192-.5.449-1.266 1.379-4.681 2.789-9.346t2.821-9.346h1.088l6.832 21.164h1.411v.542h-7.663v-.542h2.148l-2.052-6.448h-5.576l-.224.641q-.16.481-.385 1.218t-.433 1.475q-.208.737-.369 1.347a4.017 4.017 0 00-.16.834.637.637 0 00.3.577 2.07 2.07 0 00.721.273 4.489 4.489 0 00.85.08h.753v.545H495.5zm4.777-6.989h5.258l-2.693-8.4zM429.542 65.94a1.194 1.194 0 01.942.479 1.737 1.737 0 01.4 1.149 1.768 1.768 0 01-.4 1.2 1.239 1.239 0 01-.974.46 1.194 1.194 0 01-.942-.478 1.783 1.783 0 01-.4-1.181 1.7 1.7 0 01.416-1.15 1.239 1.239 0 01.958-.479zM313.242 69.594q0-.289-.032-.611a2.542 2.542 0 00-.129-.595 1.34 1.34 0 00-.273-.466.6.6 0 00-.466-.193.945.945 0 00-.434.161q-.273.161-.627.418a12.034 12.034 0 01-1.66 1.077 4.855 4.855 0 01-2.395.563 6.906 6.906 0 01-3.424-.852 8.036 8.036 0 01-2.588-2.3 10.969 10.969 0 01-1.639-3.391 14.414 14.414 0 01-.579-4.131 16.194 16.194 0 01.563-4.259 12.412 12.412 0 011.623-3.665 8.574 8.574 0 012.6-2.556 6.532 6.532 0 013.536-.964 4.086 4.086 0 011.543.273 11.345 11.345 0 011.254.595q.579.321 1.093.595a2.3 2.3 0 001.093.273.75.75 0 00.579-.209 1.214 1.214 0 00.257-.659h.584v6.494h-.64a7.972 7.972 0 00-.5-2.331 9.051 9.051 0 00-1.109-2.122 5.876 5.876 0 00-1.591-1.543 3.512 3.512 0 00-1.945-.595 2.892 2.892 0 00-1.768.546 4.608 4.608 0 00-1.254 1.447 8.553 8.553 0 00-.82 2.041 21.119 21.119 0 00-.482 2.315 21.666 21.666 0 00-.225 2.315q-.048 1.141-.048 2.009a29.287 29.287 0 00.193 3.327 11.43 11.43 0 00.772 3.086 5.792 5.792 0 001.639 2.282 4.226 4.226 0 002.8.884 2.5 2.5 0 001.7-.691 6.585 6.585 0 001.35-1.736 11.723 11.723 0 00.948-2.25 13.3 13.3 0 00.5-2.234h.48v7.651zm11.83-21.859a6.092 6.092 0 013.359.98 9.39 9.39 0 012.636 2.572 12.714 12.714 0 011.72 3.6 13.8 13.8 0 01.611 4.034 13.593 13.593 0 01-.611 4.034 12.328 12.328 0 01-1.72 3.536 9.354 9.354 0 01-2.636 2.523 6.166 6.166 0 01-3.359.964 6.225 6.225 0 01-3.408-.98 9.039 9.039 0 01-2.636-2.588 13.179 13.179 0 01-1.7-3.633 14.177 14.177 0 01-.611-4.115 12.341 12.341 0 01.659-3.954 12.59 12.59 0 011.8-3.5 9.957 9.957 0 012.645-2.509 5.925 5.925 0 013.251-.964zm.064.514a2.953 2.953 0 00-1.768.53 4.479 4.479 0 00-1.254 1.414 8.355 8.355 0 00-.82 1.993 19.578 19.578 0 00-.482 2.282q-.177 1.173-.241 2.315t-.064 2.041q0 .932.048 2.073t.209 2.315a20.265 20.265 0 00.45 2.3 8.267 8.267 0 00.788 2.009 4.311 4.311 0 001.237 1.414 3.007 3.007 0 001.8.53 2.944 2.944 0 001.8-.546 4.315 4.315 0 001.222-1.431 7.784 7.784 0 00.739-2.025 20.851 20.851 0 00.386-2.315q.129-1.173.161-2.315t.032-2.041q0-.8-.048-1.9t-.209-2.25q-.161-1.157-.434-2.315a8.456 8.456 0 00-.755-2.057 4.86 4.86 0 00-1.157-1.463 2.476 2.476 0 00-1.64-.558zm10.062 20.8q.964 0 1.511-.048a1.144 1.144 0 00.788-.321 1.428 1.428 0 00.289-.836q.048-.563.048-1.623v-17.1l-.418-.418h-2.218v-.546h6.461l9.322 15.3V51.368q0-1.029-.048-1.575a1.485 1.485 0 00-.241-.788.769.769 0 00-.563-.273q-.37-.032-1.013-.032h-.707v-.546h5.818v.546h-.739q-.643 0-1.029.032a.785.785 0 00-.579.273 1.485 1.485 0 00-.241.788q-.048.546-.048 1.575v18.387h-1.606L338.444 50.66v15.012q0 1.286.032 1.977a1.757 1.757 0 00.273 1 1.071 1.071 0 00.788.354q.546.048 1.575.048v.546h-5.914zm19.063-20.9h7.908v.546h-2.058l4.468 14.787q1.029-3.054 1.736-5.208t1.189-3.633q.482-1.479.755-2.363t.4-1.4a7.692 7.692 0 00.161-.755 3.139 3.139 0 00.032-.4.785.785 0 00-.241-.627 1.491 1.491 0 00-.611-.305 3.044 3.044 0 00-.771-.1h-.788v-.546h5.915v.546h-.257a11.1 11.1 0 00-1.189.048 1.149 1.149 0 00-.675.289 1.981 1.981 0 00-.45.755q-.193.514-.482 1.414l-6.299 19.238-7.04-21.731h-1.7zm23.56 20.803h3.118q1.479 0 2.748-.08a5.04 5.04 0 002.2-.611 3.66 3.66 0 001.479-1.688 7.976 7.976 0 00.546-3.311h.546v6.333h-16.131v-.546h1.607v-20.35h-1.607v-.546h16.105l.032 5.272h-.543a6.394 6.394 0 00-.916-2.716 3.953 3.953 0 00-1.607-1.382 5.676 5.676 0 00-2.154-.482q-1.205-.048-2.588-.048h-2.835v9.483h.836q1 0 1.752-.064a2.589 2.589 0 001.27-.418 2.117 2.117 0 00.771-1.109 7.343 7.343 0 00.289-2.106h.514v8.1h-.514a8.023 8.023 0 00-.238-1.948 2.408 2.408 0 00-.595-1.093 1.86 1.86 0 00-.932-.482 6.26 6.26 0 00-1.253-.11h-1.9zm17.745.1h1.961v.546h-7.263v-.546h1.768V48.699h-1.768v-.546h9.29a8.583 8.583 0 012.09.257 4.982 4.982 0 011.816.852 4.472 4.472 0 011.286 1.575 5.4 5.4 0 01.5 2.459 5.217 5.217 0 01-.338 1.961 4.372 4.372 0 01-.916 1.431 4.964 4.964 0 01-1.35.98 7.089 7.089 0 01-1.639.579v.354a4.378 4.378 0 012.106 1.141 5.342 5.342 0 011.141 1.784 7.633 7.633 0 01.482 2.106q.1 1.109.129 2.106.032.707.08 1.334a5.824 5.824 0 00.177 1.093 1.729 1.729 0 00.386.739.924.924 0 00.707.273 1.822 1.822 0 00.546-.08q.257-.08.514-.177a.093.093 0 00.064-.032l.193.482a4.364 4.364 0 01-1.077.354 6.008 6.008 0 01-1.077.1 4.865 4.865 0 01-2.218-.418 3.006 3.006 0 01-1.238-1.157 4.776 4.776 0 01-.579-1.768q-.145-1.029-.241-2.282-.032-.386-.064-.8t-.1-.868a5.064 5.064 0 00-.659-2.154 3.177 3.177 0 00-1.222-1.141 4.39 4.39 0 00-1.623-.45q-.9-.08-1.864-.08zm0-20.349v9.483h1.029a6.358 6.358 0 001.784-.257 4.266 4.266 0 001.559-.82 4.166 4.166 0 001.093-1.447 5.056 5.056 0 00.418-2.17 6.275 6.275 0 00-.386-2.379 3.525 3.525 0 00-1.061-1.463 3.963 3.963 0 00-1.575-.739 8.514 8.514 0 00-1.929-.209zm19.223 0h-.45a11.077 11.077 0 00-2.54.241 3.041 3.041 0 00-1.591.9 3.807 3.807 0 00-.836 1.8 14.875 14.875 0 00-.241 2.974h-.579q.064-1.672.08-3.247t.08-3.215h15.912q.032 1.639.048 3.215t.049 3.243h-.514a15.232 15.232 0 00-.257-3.134 3.56 3.56 0 00-.884-1.8 3.028 3.028 0 00-1.7-.8 17.762 17.762 0 00-2.781-.177v20.349h2.186v.546h-8.262v-.546h2.282z" />
        </g>
    </g>
</svg>