<svg xmlns="http://www.w3.org/2000/svg" width="266" height="82" viewBox="0 0 266 82">
    <defs>
        <clipPath id="prefix__clip-path">
            <path id="prefix__bg:brand" d="M0 0H266V82H0z" transform="translate(826 4)" style="stroke:#707070;fill:#fff"/>
        </clipPath>
        <style>
            .prefix__cls-4{fill:#fff}
        </style>
    </defs>
    <g transform="translate(-826 -4)">
        <g transform="translate(222.298 -609.004)">
            <path d="M2005.884 2537.647H1857.25v-21.057h2.477v18.579h143.679v-18.579h2.477v21.057zm0-58.214h-2.476v-18.579h-143.68v18.579h-2.479v-21.057h148.632v21.059z" data-name="Caminho 51636" transform="translate(-1194.682 -1844.007)" style="fill:#6cf1e5"/>
            <g transform="translate(603.702 640.641)">
                <path d="M-19.372 15.495h.159v-.239zm.159.716v-.716h.477a7.39 7.39 0 0 0 1.774-.119q.776-.159.9-1.234.04-.358.08-1.493t.06-2.746q.02-1.612.02-3.582v-4q0-2.189-.02-4.319t-.04-3.8q-.02-1.672-.08-2.727a3.9 3.9 0 0 0-.139-1.134h-2.906v-.676h7.682l6.248 17.949 6.2-17.951h6.532v.676H5.426v25.2h2.15v.678h-9.195v-.718H.61L.649-5.76.33-5.84Q-1.5-.427-3.351 4.967t-3.761 10.806l-7.8-22.091-.318.08V13.5a3.349 3.349 0 0 0 .08.8 1.01 1.01 0 0 0 .358.736 2.022 2.022 0 0 0 .778.376 3.769 3.769 0 0 0 .955.119h1.254v.679zm39.566-27.066a7.543 7.543 0 0 1 4.159 1.214 11.627 11.627 0 0 1 3.264 3.184A15.742 15.742 0 0 1 29.907-2a17.093 17.093 0 0 1 .754 5 16.83 16.83 0 0 1-.756 5 15.265 15.265 0 0 1-2.129 4.38 11.581 11.581 0 0 1-3.265 3.12 7.89 7.89 0 0 1-8.381-.02 11.192 11.192 0 0 1-3.26-3.2 16.319 16.319 0 0 1-2.11-4.5A17.554 17.554 0 0 1 10 2.678a15.28 15.28 0 0 1 .816-4.9 15.589 15.589 0 0 1 2.229-4.34 12.328 12.328 0 0 1 3.284-3.1 7.337 7.337 0 0 1 4.021-1.192zm.08.637a3.656 3.656 0 0 0-2.189.657 5.546 5.546 0 0 0-1.552 1.751 10.345 10.345 0 0 0-1.015 2.468 24.24 24.24 0 0 0-.6 2.826q-.219 1.453-.3 2.866T14.7 2.878q0 1.154.06 2.567t.259 2.866a25.092 25.092 0 0 0 .557 2.843 10.237 10.237 0 0 0 .975 2.488 5.338 5.338 0 0 0 1.532 1.751 3.723 3.723 0 0 0 2.229.657 3.646 3.646 0 0 0 2.229-.676 5.343 5.343 0 0 0 1.512-1.774 9.639 9.639 0 0 0 .915-2.508 25.821 25.821 0 0 0 .478-2.864q.159-1.453.2-2.866t.04-2.528q0-1-.06-2.349T25.367-2.3q-.2-1.433-.537-2.866a10.47 10.47 0 0 0-.93-2.545 6.018 6.018 0 0 0-1.433-1.811 3.066 3.066 0 0 0-2.031-.7zm12.7-.119h8.237a21.433 21.433 0 0 1 5.294.637 11.307 11.307 0 0 1 4.4 2.169 10.553 10.553 0 0 1 3.005 4.12 16.339 16.339 0 0 1 1.111 6.448 16.448 16.448 0 0 1-1.054 6.309 10.323 10.323 0 0 1-2.866 4.041 11.01 11.01 0 0 1-4.218 2.169 19.521 19.521 0 0 1-5.157.658h-8.756v-.678H35.4V-9.621h-2.271zm6.966.716v25.155a13.08 13.08 0 0 0 4.816-.776 7.138 7.138 0 0 0 3.143-2.368 10.127 10.127 0 0 0 1.712-4 27.287 27.287 0 0 0 .518-5.672 20.666 20.666 0 0 0-.557-4.936 11.852 11.852 0 0 0-1.692-3.921 8.114 8.114 0 0 0-2.869-2.587 8.46 8.46 0 0 0-4.08-.935zm16.275 25.155a7.045 7.045 0 0 0 1.433-.119 1.969 1.969 0 0 0 .915-.438 2.373 2.373 0 0 0 .6-.935q.239-.617.557-1.572Q61.59 6.658 63.341.867t3.5-11.6h1.35l8.481 26.27h1.751v.678h-9.511v-.678h2.667l-2.547-8h-6.924l-.279.8q-.2.6-.477 1.513t-.541 1.83q-.259.915-.458 1.672a4.989 4.989 0 0 0-.2 1.035.791.791 0 0 0 .378.716 2.57 2.57 0 0 0 .9.338 5.573 5.573 0 0 0 1.055.1h.935v.678h-7.047zM62.3 6.857h6.528L65.49-3.569z" class="prefix__cls-4" data-name="Caminho 51635" transform="translate(187.574 10.356)"/>
                <path d="M1.066-1.469a1.483 1.483 0 0 1 1.169.595A2.157 2.157 0 0 1 2.73.553a2.195 2.195 0 0 1-.5 1.487 1.538 1.538 0 0 1-1.209.575 1.483 1.483 0 0 1-1.164-.596A2.214 2.214 0 0 1-.639.553 2.106 2.106 0 0 1-.123-.874a1.538 1.538 0 0 1 1.189-.595z" class="prefix__cls-4" data-name="Caminho 51634" transform="translate(160.996 23.536)"/>
                <path d="M19.316 0q0-.359-.04-.758a3.156 3.156 0 0 0-.16-.738 1.664 1.664 0 0 0-.339-.579.748.748 0 0 0-.579-.239 1.173 1.173 0 0 0-.539.2q-.339.2-.778.519a14.94 14.94 0 0 1-2.055 1.336 6.028 6.028 0 0 1-2.973.7A8.573 8.573 0 0 1 7.6-.619a9.977 9.977 0 0 1-3.21-2.853 13.619 13.619 0 0 1-2.035-4.21 17.9 17.9 0 0 1-.718-5.128 20.1 20.1 0 0 1 .7-5.288 15.409 15.409 0 0 1 2.015-4.55 10.644 10.644 0 0 1 3.233-3.173 8.109 8.109 0 0 1 4.39-1.2 5.072 5.072 0 0 1 1.916.339 14.084 14.084 0 0 1 1.556.738q.718.4 1.357.738a2.851 2.851 0 0 0 1.357.339.931.931 0 0 0 .718-.259 1.507 1.507 0 0 0 .319-.818h.718v8.062h-.8a9.9 9.9 0 0 0-.619-2.893 11.237 11.237 0 0 0-1.377-2.634 7.3 7.3 0 0 0-1.975-1.916 4.36 4.36 0 0 0-2.414-.738 3.592 3.592 0 0 0-2.195.678 5.72 5.72 0 0 0-1.556 1.8 10.618 10.618 0 0 0-1.018 2.534 26.218 26.218 0 0 0-.6 2.873 26.9 26.9 0 0 0-.278 2.878q-.06 1.417-.06 2.494a36.36 36.36 0 0 0 .239 4.126 14.191 14.191 0 0 0 .958 3.831 7.19 7.19 0 0 0 2.035 2.834 5.246 5.246 0 0 0 3.472 1.1 3.1 3.1 0 0 0 2.115-.858 8.175 8.175 0 0 0 1.677-2.158 14.554 14.554 0 0 0 1.18-2.794 16.516 16.516 0 0 0 .616-2.775h.6V0zM34-27.138a7.563 7.563 0 0 1 4.17 1.217 11.658 11.658 0 0 1 3.273 3.193 15.785 15.785 0 0 1 2.135 4.47 17.138 17.138 0 0 1 .758 5.009 16.875 16.875 0 0 1-.758 5.009 15.305 15.305 0 0 1-2.135 4.39 11.612 11.612 0 0 1-3.27 3.132A7.655 7.655 0 0 1 34 .479a7.728 7.728 0 0 1-4.23-1.217 11.224 11.224 0 0 1-3.27-3.213 16.363 16.363 0 0 1-2.115-4.51 17.6 17.6 0 0 1-.758-5.108 15.321 15.321 0 0 1 .818-4.909 15.63 15.63 0 0 1 2.235-4.35 12.361 12.361 0 0 1 3.292-3.113A7.356 7.356 0 0 1 34-27.138zm.08.639a3.666 3.666 0 0 0-2.195.658 5.561 5.561 0 0 0-1.556 1.756 10.373 10.373 0 0 0-1.018 2.474 24.305 24.305 0 0 0-.6 2.834q-.22 1.457-.3 2.873t-.08 2.534q0 1.157.06 2.574t.259 2.873a25.157 25.157 0 0 0 .559 2.853 10.263 10.263 0 0 0 .978 2.494 5.353 5.353 0 0 0 1.54 1.758 3.733 3.733 0 0 0 2.235.658A3.655 3.655 0 0 0 36.2-.838a5.357 5.357 0 0 0 1.517-1.776 9.664 9.664 0 0 0 .918-2.514A25.886 25.886 0 0 0 39.11-8q.16-1.457.2-2.873t.04-2.534q0-1-.06-2.355t-.259-2.794q-.2-1.437-.539-2.873a10.5 10.5 0 0 0-.938-2.554 6.036 6.036 0 0 0-1.437-1.817 3.074 3.074 0 0 0-2.035-.7zM46.573-.678q1.2 0 1.876-.06a1.42 1.42 0 0 0 .978-.4 1.773 1.773 0 0 0 .359-1.038q.06-.7.06-2.015v-21.231l-.519-.519h-2.754v-.678H54.6l11.574 19v-15.009q0-1.277-.06-1.956a1.846 1.846 0 0 0-.3-.978.954.954 0 0 0-.7-.339q-.459-.04-1.257-.04h-.878v-.678H70.2v.678h-.918q-.8 0-1.277.04a.975.975 0 0 0-.718.339 1.846 1.846 0 0 0-.3.978q-.06.678-.06 1.956V.2h-2L50.6-23.506v18.637q0 1.6.04 2.454a2.181 2.181 0 0 0 .339 1.237 1.33 1.33 0 0 0 .978.439q.678.06 1.956.06V0h-7.34zm23.666-25.941h9.818v.678H77.5l5.55 18.358q1.277-3.791 2.155-6.465t1.477-4.51q.6-1.836.938-2.933t.5-1.736a9.543 9.543 0 0 0 .2-.938 3.9 3.9 0 0 0 .04-.5.974.974 0 0 0-.3-.778 1.851 1.851 0 0 0-.758-.379 3.779 3.779 0 0 0-.958-.12h-.978v-.678h7.343v.678h-.319a13.777 13.777 0 0 0-1.477.06 1.426 1.426 0 0 0-.838.359 2.459 2.459 0 0 0-.559.938q-.239.639-.6 1.756L81.094 1.038l-8.74-26.978h-2.115zM99.492-.8h3.871q1.836 0 3.412-.1a6.256 6.256 0 0 0 2.734-.758 4.544 4.544 0 0 0 1.836-2.1 9.9 9.9 0 0 0 .678-4.111h.678V0H92.668v-.678h2v-25.263h-2v-.678h19.994l.04 6.545h-.678a7.938 7.938 0 0 0-1.137-3.372 4.908 4.908 0 0 0-2-1.716 7.047 7.047 0 0 0-2.674-.6q-1.5-.06-3.213-.06h-3.508v11.773h1.038q1.237 0 2.175-.08a3.214 3.214 0 0 0 1.576-.519 2.628 2.628 0 0 0 .958-1.377 9.117 9.117 0 0 0 .359-2.614h.639V-8.58h-.637a9.961 9.961 0 0 0-.3-2.414 2.99 2.99 0 0 0-.738-1.357 2.309 2.309 0 0 0-1.157-.6 7.772 7.772 0 0 0-1.556-.14h-2.357zm22.03.12h2.434V0h-9.019v-.678h2.195v-25.263h-2.195v-.678h11.534a10.655 10.655 0 0 1 2.594.319 6.186 6.186 0 0 1 2.255 1.058 5.552 5.552 0 0 1 1.6 1.956 6.707 6.707 0 0 1 .619 3.053 6.477 6.477 0 0 1-.419 2.434 5.428 5.428 0 0 1-1.137 1.776 6.163 6.163 0 0 1-1.676 1.217 8.8 8.8 0 0 1-2.035.718v.439a5.438 5.438 0 0 1 2.614 1.417 6.632 6.632 0 0 1 1.417 2.215 9.479 9.479 0 0 1 .6 2.614q.12 1.377.16 2.614.04.878.1 1.656a7.23 7.23 0 0 0 .219 1.357 2.145 2.145 0 0 0 .479.918 1.147 1.147 0 0 0 .878.339 2.262 2.262 0 0 0 .678-.1q.319-.1.639-.219a.115.115 0 0 0 .08-.04l.239.6a5.418 5.418 0 0 1-1.337.439 7.458 7.458 0 0 1-1.337.12 6.04 6.04 0 0 1-2.754-.519 3.732 3.732 0 0 1-1.547-1.438 5.928 5.928 0 0 1-.718-2.195q-.18-1.277-.3-2.834-.04-.479-.08-1t-.12-1.078a6.286 6.286 0 0 0-.818-2.674 3.944 3.944 0 0 0-1.517-1.417 5.45 5.45 0 0 0-2.015-.559q-1.117-.1-2.315-.1zm0-25.262v11.773h1.278a7.892 7.892 0 0 0 2.215-.319 5.3 5.3 0 0 0 1.936-1.018 5.172 5.172 0 0 0 1.357-1.8 6.277 6.277 0 0 0 .519-2.694 7.791 7.791 0 0 0-.479-2.953 4.376 4.376 0 0 0-1.317-1.816 4.92 4.92 0 0 0-1.956-.918 10.571 10.571 0 0 0-2.395-.259zm23.865 0h-.559a13.751 13.751 0 0 0-3.153.3 3.776 3.776 0 0 0-1.975 1.117 4.726 4.726 0 0 0-1.038 2.235 18.466 18.466 0 0 0-.3 3.692h-.718q.08-2.075.1-4.031t.1-3.991H157.6q.04 2.035.06 3.991t.06 4.031h-.639a18.91 18.91 0 0 0-.319-3.891 4.42 4.42 0 0 0-1.1-2.235 3.759 3.759 0 0 0-2.115-1 22.05 22.05 0 0 0-3.452-.219V-.678h2.714V0h-10.255v-.678h2.834z" class="prefix__cls-4" data-name="Caminho 51639" transform="translate(-1.636 26.605)"/>
            </g>
        </g>
    </g>
</svg>
