<svg xmlns="http://www.w3.org/2000/svg" viewBox="0 0 16 15.7">
	<path fill="#fbb832" d="M11.7 15.1c-.3 0-.5-.1-.7-.2l-3-1.5L5.1 15c-.5.3-1.2.2-1.7-.1-.5-.4-.7-1-.6-1.6l.6-3.3L1 7.6C.6 7.2.4 6.5.6 6c.2-.6.7-1 1.3-1.1l3.2-.5 1.5-3c.2-.4.5-.7.9-.8.4-.1.8-.1 1.2.1.3.1.6.4.8.7l1.5 3 3.2.5c.6.1 1.1.5 1.2 1.1.2.6 0 1.2-.4 1.6l-2.4 2.3.6 3.3c.1.6-.1 1.2-.6 1.6-.3.2-.6.3-.9.3zM8 1.5h-.2l-.3.3L6 4.9c-.1.3-.3.4-.6.5L2 5.9c-.2 0-.4.2-.5.4-.1.2 0 .5.1.6L4 9.3c.3.2.4.5.4.7l-.6 3.4c0 .2.1.5.2.6.2.1.4.1.6 0l3-1.6c.2-.1.5-.1.7 0l3 1.6c.2.1.4.1.6 0 .2-.1.3-.4.2-.6l-.4-3.4c0-.3 0-.5.2-.7l2.4-2.4c.2-.2.2-.4.1-.6-.1-.2-.3-.4-.5-.4l-3.4-.5c-.3 0-.5-.2-.6-.4L8.6 1.8c-.1-.1-.2-.2-.3-.2-.1-.1-.2-.1-.3-.1zM3.4 9.8zm1.7-5.3zm5.9 0z"/>
</svg>
