<svg xmlns="http://www.w3.org/2000/svg" width="178.515" height="64" viewBox="0 0 178.515 64">
    <g transform="translate(-711.067 -389.699)">
        <g transform="translate(787.246 422.667)">
            <path d="M15.333-35.1a15.4,15.4,0,0,1,5.954,1.048,11.359,11.359,0,0,1,4.141,2.861,11.559,11.559,0,0,1,2.418,4.272,17.243,17.243,0,0,1,.786,5.279,16.783,16.783,0,0,1-.836,5.36,12.134,12.134,0,0,1-2.529,4.363,11.867,11.867,0,0,1-4.252,2.942,15.388,15.388,0,0,1-6,1.078H.946a.439.439,0,0,1-.3-.091.307.307,0,0,1-.111-.2A.274.274,0,0,1,.613-8.4a.5.5,0,0,1,.272-.141q.242-.04.766-.171a3.572,3.572,0,0,0,1.058-.474,3.32,3.32,0,0,0,.937-.927,2.646,2.646,0,0,0,.4-1.531V-31.352a2.656,2.656,0,0,0-.4-1.521,3.152,3.152,0,0,0-.937-.927,3.953,3.953,0,0,0-1.058-.474q-.524-.141-.766-.181a.39.39,0,0,1-.272-.131.3.3,0,0,1-.081-.222.307.307,0,0,1,.111-.2.439.439,0,0,1,.3-.091ZM15.011-9.126a4.04,4.04,0,0,0,2.68-.927,6.828,6.828,0,0,0,1.824-2.569,15.155,15.155,0,0,0,1.038-3.909,35.4,35.4,0,0,0,.322-4.967,35.03,35.03,0,0,0-.312-4.886,15.715,15.715,0,0,0-.977-3.808,6.807,6.807,0,0,0-1.723-2.539,4.337,4.337,0,0,0-2.529-1.078q-.242-.02-.665-.03l-.907-.02q-.484-.01-.947-.01h-.766a1.38,1.38,0,0,0-.987.343,1.189,1.189,0,0,0-.363.907v15.073a29.99,29.99,0,0,0,.212,3.869,8.432,8.432,0,0,0,.715,2.609,3.316,3.316,0,0,0,1.33,1.481A4.153,4.153,0,0,0,15.011-9.126Zm21.037-9.451q-.322,0-.322.343a14.9,14.9,0,0,0,.363,3.526A6.7,6.7,0,0,0,37.146-12.3a4.168,4.168,0,0,0,1.733,1.38,6.088,6.088,0,0,0,2.408.443,7.129,7.129,0,0,0,1.864-.222,8.241,8.241,0,0,0,1.421-.514,7.749,7.749,0,0,0,.987-.554,4.149,4.149,0,0,1,.564-.343.363.363,0,0,1,.443.05q.161.171,0,.514-.06.121-.272.474a6,6,0,0,1-.615.816,8.808,8.808,0,0,1-1.008.967,7.607,7.607,0,0,1-1.441.927,9.245,9.245,0,0,1-1.914.7,9.851,9.851,0,0,1-2.408.272,9.991,9.991,0,0,1-3.647-.635,7.649,7.649,0,0,1-2.791-1.844,8.328,8.328,0,0,1-1.793-2.942,11.309,11.309,0,0,1-.635-3.909,10.608,10.608,0,0,1,.786-4.211,9.413,9.413,0,0,1,2.055-3.073,8.737,8.737,0,0,1,2.882-1.884,8.773,8.773,0,0,1,3.285-.645,8.135,8.135,0,0,1,2.771.433A7.3,7.3,0,0,1,43.9-24.974a6.857,6.857,0,0,1,1.451,1.552,9.913,9.913,0,0,1,.927,1.7,8.068,8.068,0,0,1,.494,1.592,6.754,6.754,0,0,1,.141,1.189.3.3,0,0,1-.131.282.669.669,0,0,1-.353.081Zm-.222-1.33q-.04.262.242.262.06,0,.4-.01t.836-.03l1.058-.04,1.078-.04q.514-.02.887-.03a3.78,3.78,0,0,0,.474-.03,1.284,1.284,0,0,0,.675-.282,1.058,1.058,0,0,0,.353-.907,6.652,6.652,0,0,0-.161-1.35,5.738,5.738,0,0,0-.514-1.451,3.855,3.855,0,0,0-.9-1.159,1.955,1.955,0,0,0-1.33-.474,1.818,1.818,0,0,0-1.088.332,3,3,0,0,0-.8.866,5.769,5.769,0,0,0-.554,1.179,12.435,12.435,0,0,0-.363,1.259q-.141.615-.212,1.128T35.826-19.907Zm21.742-5.521a2.283,2.283,0,0,0-1.481.554,4.5,4.5,0,0,0-1.159,1.562,9.684,9.684,0,0,0-.746,2.428,17.326,17.326,0,0,0-.262,3.133,10.181,10.181,0,0,0,.433,3.093,7.012,7.012,0,0,0,1.2,2.307A5.285,5.285,0,0,0,57.347-10.9a4.968,4.968,0,0,0,2.217.5,6.21,6.21,0,0,0,2.106-.343,10.471,10.471,0,0,0,1.693-.766,9.394,9.394,0,0,0,1.209-.806,3.867,3.867,0,0,1,.655-.463.38.38,0,0,1,.453.05q.171.171-.01.514-.121.222-.4.665a7.916,7.916,0,0,1-.756.977,11.243,11.243,0,0,1-1.139,1.1A8.546,8.546,0,0,1,61.83-8.441a9.365,9.365,0,0,1-1.975.756,9.522,9.522,0,0,1-2.448.292A11.032,11.032,0,0,1,53.639-8a7.805,7.805,0,0,1-2.861-1.773,7.763,7.763,0,0,1-1.824-2.871,11.055,11.055,0,0,1-.635-3.879,11.028,11.028,0,0,1,.484-3.405,9.386,9.386,0,0,1,1.28-2.6A8.49,8.49,0,0,1,51.906-24.4a10.792,10.792,0,0,1,2.106-1.239,10.414,10.414,0,0,1,2.126-.685,9.656,9.656,0,0,1,1.894-.212,11.766,11.766,0,0,1,2.519.252,7.387,7.387,0,0,1,1.975.705,3.977,3.977,0,0,1,1.29,1.068,2.151,2.151,0,0,1,.463,1.32,2.33,2.33,0,0,1-.212,1.048,2.091,2.091,0,0,1-.544.7,2.1,2.1,0,0,1-.746.393,2.963,2.963,0,0,1-.836.121,2.94,2.94,0,0,1-1.139-.222,1.912,1.912,0,0,1-.877-.746,3.211,3.211,0,0,1-.423-.987q-.161-.6-.373-1.169a3.227,3.227,0,0,0-.554-.967A1.249,1.249,0,0,0,57.568-25.428Zm19.062-1.108a9.723,9.723,0,0,1,3.818.735,9.039,9.039,0,0,1,2.992,2.015A9.256,9.256,0,0,1,85.4-20.773a9.741,9.741,0,0,1,.705,3.708,9.261,9.261,0,0,1-.766,3.748,9.828,9.828,0,0,1-2.1,3.073,9.878,9.878,0,0,1-3.133,2.086,9.821,9.821,0,0,1-3.879.766,9.723,9.723,0,0,1-3.819-.735,9.039,9.039,0,0,1-2.992-2.015,9.283,9.283,0,0,1-1.955-3,9.718,9.718,0,0,1-.705-3.718,9.283,9.283,0,0,1,.766-3.738,9.8,9.8,0,0,1,2.1-3.083,9.878,9.878,0,0,1,3.133-2.086A9.821,9.821,0,0,1,76.631-26.536Zm-.2,18.075a2.391,2.391,0,0,0,1.683-.665A5.057,5.057,0,0,0,79.3-10.95a12.114,12.114,0,0,0,.715-2.71,21.47,21.47,0,0,0,.242-3.3,21.47,21.47,0,0,0-.242-3.3,12.114,12.114,0,0,0-.715-2.71A5.057,5.057,0,0,0,78.112-24.8a2.391,2.391,0,0,0-1.683-.665,2.391,2.391,0,0,0-1.683.665,5.16,5.16,0,0,0-1.2,1.824,11.434,11.434,0,0,0-.715,2.71,22.387,22.387,0,0,0-.232,3.3,22.387,22.387,0,0,0,.232,3.3,11.434,11.434,0,0,0,.715,2.71,5.16,5.16,0,0,0,1.2,1.824A2.391,2.391,0,0,0,76.429-8.461ZM99.8-26.536a4.228,4.228,0,0,1,1.431.212,2.612,2.612,0,0,1,.947.564,2.066,2.066,0,0,1,.524.826,3.074,3.074,0,0,1,.161,1,1.913,1.913,0,0,1-.615,1.511,2.387,2.387,0,0,1-1.642.544,2.281,2.281,0,0,1-1.229-.282,3.907,3.907,0,0,1-.756-.615q-.312-.332-.574-.615a.845.845,0,0,0-.645-.282,1.462,1.462,0,0,0-.735.232,2.1,2.1,0,0,0-.725.877,6.842,6.842,0,0,0-.554,1.773,15.665,15.665,0,0,0-.222,2.922V-10.9a2.51,2.51,0,0,0,.272,1.269,2.159,2.159,0,0,0,.625.705,2.261,2.261,0,0,0,.7.332,4.3,4.3,0,0,0,.5.111.408.408,0,0,1,.232.131.228.228,0,0,1,.05.191.328.328,0,0,1-.111.181.366.366,0,0,1-.252.081H87.713a.366.366,0,0,1-.252-.081.328.328,0,0,1-.111-.181.228.228,0,0,1,.05-.191.408.408,0,0,1,.232-.131,4.3,4.3,0,0,0,.5-.111,2.261,2.261,0,0,0,.7-.332,2.159,2.159,0,0,0,.625-.705,2.51,2.51,0,0,0,.272-1.269V-22.264a.3.3,0,0,0-.242-.322,2.36,2.36,0,0,1-.292-.06l-.574-.141q-.322-.081-.594-.141t-.332-.081q-.262-.06-.272-.272t.292-.292a17.568,17.568,0,0,0,1.7-.494q.917-.312,1.844-.705t1.793-.846a16.073,16.073,0,0,0,1.552-.917.554.554,0,0,1,.373-.1q.191.02.191.3v2.882a5.182,5.182,0,0,1,1.914-2.317A4.977,4.977,0,0,1,99.8-26.536Z" transform="translate(-0.532 35.1)" fill="#379078"/>
        </g>
        <g transform="translate(711.067 389.699)">
            <path d="M2973.089,2240.09H2918V2185h55.09v55.09Zm-51.111-51.111v47.132h47.132v-47.132Z" transform="translate(-2905.127 -2180.545)" fill="#dee0e0"/>
            <path d="M76.274,31.692a7.518,7.518,0,0,0-6.589-3.2,7.189,7.189,0,0,0-1.567.174l2.8-10.824a11.959,11.959,0,0,0-6.069-13.6,36.549,36.549,0,0,0-34.186,0,11.959,11.959,0,0,0-6.069,13.6l2.8,10.824a8.911,8.911,0,0,0-2.156-.174,7.221,7.221,0,0,0-6.689,9.946A31.356,31.356,0,0,0,31.154,53.309l-4.949,6.707a2.5,2.5,0,0,0,4.024,2.968l5.438-7.369A31.436,31.436,0,0,0,47.695,58h.116a31.436,31.436,0,0,0,12.028-2.381l5.438,7.369A2.5,2.5,0,0,0,69.3,60.015l-4.949-6.707A31.354,31.354,0,0,0,76.962,38.441,7.2,7.2,0,0,0,76.274,31.692ZM32.96,8.683a31.55,31.55,0,0,1,29.585,0,6.917,6.917,0,0,1,3.528,7.912L61.732,33.4a24.528,24.528,0,0,1-27.959,0l-4.341-16.8A6.917,6.917,0,0,1,32.96,8.683ZM72.334,36.549A26.48,26.48,0,0,1,47.811,53h-.116A26.481,26.481,0,0,1,23.171,36.549,2.216,2.216,0,0,1,25.232,33.5a2.623,2.623,0,0,1,2.382.9c3.189,4.032,10.851,8.371,20.139,8.371S64.7,38.43,67.891,34.4a2.294,2.294,0,0,1,1.793-.9,2.561,2.561,0,0,1,2.438.984A2.178,2.178,0,0,1,72.334,36.549Z" transform="translate(-18 0)" fill="#bf9c7d"/>
        </g>
        <path d="M25.311-64.209a.418.418,0,0,1,.227.118.229.229,0,0,1,.067.177.256.256,0,0,1-.093.168.367.367,0,0,1-.253.076H14.518a.367.367,0,0,1-.253-.076.256.256,0,0,1-.093-.168.229.229,0,0,1,.067-.177.418.418,0,0,1,.227-.118q.2-.034.64-.143a2.984,2.984,0,0,0,.884-.4,2.774,2.774,0,0,0,.783-.774,2.211,2.211,0,0,0,.337-1.28v-8.014H9.8V-66.8a2.211,2.211,0,0,0,.337,1.28,2.774,2.774,0,0,0,.783.774,2.984,2.984,0,0,0,.884.4q.438.109.64.143a.418.418,0,0,1,.227.118.229.229,0,0,1,.067.177.256.256,0,0,1-.093.168.367.367,0,0,1-.253.076H1.655a.367.367,0,0,1-.253-.076.256.256,0,0,1-.093-.168.229.229,0,0,1,.067-.177.418.418,0,0,1,.227-.118q.2-.034.64-.143a2.984,2.984,0,0,0,.884-.4,2.774,2.774,0,0,0,.783-.774,2.211,2.211,0,0,0,.337-1.28V-83.268a2.219,2.219,0,0,0-.337-1.271,2.633,2.633,0,0,0-.783-.774,3.3,3.3,0,0,0-.884-.4q-.438-.118-.64-.152a.326.326,0,0,1-.227-.109.254.254,0,0,1-.067-.185.256.256,0,0,1,.093-.168.367.367,0,0,1,.253-.076H12.4a.367.367,0,0,1,.253.076.256.256,0,0,1,.093.168.254.254,0,0,1-.067.185.326.326,0,0,1-.227.109q-.2.034-.64.152a3.3,3.3,0,0,0-.884.4,2.633,2.633,0,0,0-.783.774A2.219,2.219,0,0,0,9.8-83.268v7.358h7.307v-7.358a2.22,2.22,0,0,0-.337-1.271,2.633,2.633,0,0,0-.783-.774,3.3,3.3,0,0,0-.884-.4q-.438-.118-.64-.152a.326.326,0,0,1-.227-.109.254.254,0,0,1-.067-.185.256.256,0,0,1,.093-.168.367.367,0,0,1,.253-.076H25.26a.367.367,0,0,1,.253.076.256.256,0,0,1,.093.168.254.254,0,0,1-.067.185.326.326,0,0,1-.227.109q-.2.034-.64.152a3.3,3.3,0,0,0-.884.4A2.633,2.633,0,0,0,23-84.54a2.22,2.22,0,0,0-.337,1.271V-66.8A2.211,2.211,0,0,0,23-65.522a2.774,2.774,0,0,0,.783.774,2.984,2.984,0,0,0,.884.4Q25.109-64.243,25.311-64.209Zm9.361-15.035a8.124,8.124,0,0,1,3.191.615,7.553,7.553,0,0,1,2.5,1.684A7.734,7.734,0,0,1,42-74.429a8.139,8.139,0,0,1,.589,3.1,7.738,7.738,0,0,1-.64,3.132,8.212,8.212,0,0,1-1.751,2.568,8.253,8.253,0,0,1-2.618,1.743,8.206,8.206,0,0,1-3.241.64,8.124,8.124,0,0,1-3.191-.615,7.553,7.553,0,0,1-2.5-1.684,7.756,7.756,0,0,1-1.633-2.509,8.12,8.12,0,0,1-.589-3.106,7.756,7.756,0,0,1,.64-3.123,8.185,8.185,0,0,1,1.751-2.576A8.254,8.254,0,0,1,31.431-78.6,8.206,8.206,0,0,1,34.672-79.244Zm-.168,15.1A2,2,0,0,0,35.91-64.7a4.225,4.225,0,0,0,.993-1.524,10.122,10.122,0,0,0,.6-2.265,17.94,17.94,0,0,0,.2-2.761,17.94,17.94,0,0,0-.2-2.761,10.122,10.122,0,0,0-.6-2.265A4.225,4.225,0,0,0,35.91-77.8a2,2,0,0,0-1.406-.556A2,2,0,0,0,33.1-77.8a4.312,4.312,0,0,0-1,1.524,9.553,9.553,0,0,0-.6,2.265,18.706,18.706,0,0,0-.194,2.761,18.706,18.706,0,0,0,.194,2.761,9.553,9.553,0,0,0,.6,2.265,4.312,4.312,0,0,0,1,1.524A2,2,0,0,0,34.5-64.142Zm36.637-.017a.34.34,0,0,1,.194.109.191.191,0,0,1,.042.16.274.274,0,0,1-.093.152.306.306,0,0,1-.21.067H63.16a.306.306,0,0,1-.21-.067.274.274,0,0,1-.093-.152.191.191,0,0,1,.042-.16.341.341,0,0,1,.194-.109,3.589,3.589,0,0,0,.421-.093,1.889,1.889,0,0,0,.581-.278,1.8,1.8,0,0,0,.522-.589,2.1,2.1,0,0,0,.227-1.061v-7.8a11.142,11.142,0,0,0-.118-1.355,3.848,3.848,0,0,0-.387-1.229,2.4,2.4,0,0,0-.8-.892,2.424,2.424,0,0,0-1.372-.345,2.505,2.505,0,0,0-1.2.253,1.914,1.914,0,0,0-.716.648,2.61,2.61,0,0,0-.354.884,5.8,5.8,0,0,0-.118.977v8.856A2.1,2.1,0,0,0,60-65.118a1.8,1.8,0,0,0,.522.589,1.889,1.889,0,0,0,.581.278,3.589,3.589,0,0,0,.421.093.341.341,0,0,1,.194.109.191.191,0,0,1,.042.16.274.274,0,0,1-.093.152.306.306,0,0,1-.21.067H53.546a.306.306,0,0,1-.21-.067.274.274,0,0,1-.093-.152.191.191,0,0,1,.042-.16.341.341,0,0,1,.194-.109,3.589,3.589,0,0,0,.421-.093,1.889,1.889,0,0,0,.581-.278A1.8,1.8,0,0,0,55-65.118a2.1,2.1,0,0,0,.227-1.061v-7.812a10.91,10.91,0,0,0-.118-1.347,3.843,3.843,0,0,0-.387-1.221,2.374,2.374,0,0,0-.808-.892,2.432,2.432,0,0,0-1.364-.345,2.5,2.5,0,0,0-1.212.253,2,2,0,0,0-.716.648,2.4,2.4,0,0,0-.354.892,6.612,6.612,0,0,0-.109.985v8.839a2.1,2.1,0,0,0,.227,1.061,1.8,1.8,0,0,0,.522.589,1.889,1.889,0,0,0,.581.278,3.589,3.589,0,0,0,.421.093.341.341,0,0,1,.194.109.191.191,0,0,1,.042.16.274.274,0,0,1-.093.152.306.306,0,0,1-.21.067H43.932a.306.306,0,0,1-.21-.067.274.274,0,0,1-.093-.152.191.191,0,0,1,.042-.16.341.341,0,0,1,.194-.109,3.589,3.589,0,0,0,.421-.093,1.889,1.889,0,0,0,.581-.278,1.8,1.8,0,0,0,.522-.589,2.1,2.1,0,0,0,.227-1.061v-9.5a.249.249,0,0,0-.2-.269,1.972,1.972,0,0,1-.244-.051l-.48-.118q-.269-.067-.5-.118t-.278-.067q-.219-.051-.227-.227t.244-.244a14.678,14.678,0,0,0,1.423-.413q.766-.261,1.541-.589t1.5-.707a13.432,13.432,0,0,0,1.3-.766A.463.463,0,0,1,50-79.328q.16.017.16.253v1.246a7.221,7.221,0,0,1,1.81-1,6.9,6.9,0,0,1,2.517-.413,8.546,8.546,0,0,1,1.7.152,5.1,5.1,0,0,1,1.288.429,3.753,3.753,0,0,1,.934.657,3.627,3.627,0,0,1,.64.833,7.241,7.241,0,0,1,.859-.758,6.261,6.261,0,0,1,1.111-.665,6.839,6.839,0,0,1,1.389-.471,7.531,7.531,0,0,1,1.692-.177,7.363,7.363,0,0,1,2.281.3,4.415,4.415,0,0,1,1.507.808,3.4,3.4,0,0,1,.892,1.162,5.859,5.859,0,0,1,.438,1.364,8.612,8.612,0,0,1,.152,1.406q.017.7.017,1.3v6.718a2.1,2.1,0,0,0,.227,1.061,1.8,1.8,0,0,0,.522.589,1.889,1.889,0,0,0,.581.278A3.589,3.589,0,0,0,71.141-64.158Zm5.91-8.435q-.269,0-.269.286a12.454,12.454,0,0,0,.3,2.946,5.6,5.6,0,0,0,.884,2.012A3.482,3.482,0,0,0,79.416-66.2a5.087,5.087,0,0,0,2.012.37,5.956,5.956,0,0,0,1.557-.185,6.887,6.887,0,0,0,1.187-.429A6.475,6.475,0,0,0,85-66.9a3.468,3.468,0,0,1,.471-.286.3.3,0,0,1,.37.042q.135.143,0,.429-.051.1-.227.4a5.015,5.015,0,0,1-.514.682,7.36,7.36,0,0,1-.842.808,6.355,6.355,0,0,1-1.2.774,7.725,7.725,0,0,1-1.6.581,8.231,8.231,0,0,1-2.012.227,8.348,8.348,0,0,1-3.047-.53,6.391,6.391,0,0,1-2.332-1.541,6.959,6.959,0,0,1-1.5-2.458,9.45,9.45,0,0,1-.53-3.266,8.863,8.863,0,0,1,.657-3.519,7.865,7.865,0,0,1,1.717-2.568,7.3,7.3,0,0,1,2.408-1.574,7.331,7.331,0,0,1,2.744-.539,6.8,6.8,0,0,1,2.315.362,6.1,6.1,0,0,1,1.734.943,5.73,5.73,0,0,1,1.212,1.3A8.283,8.283,0,0,1,85.6-75.22a6.74,6.74,0,0,1,.413,1.33,5.643,5.643,0,0,1,.118.993.254.254,0,0,1-.109.236.559.559,0,0,1-.295.067ZM76.865-73.7q-.034.219.2.219l.337-.008q.286-.008.7-.025l.884-.034.9-.034q.429-.017.741-.025a3.16,3.16,0,0,0,.4-.025,1.073,1.073,0,0,0,.564-.236.884.884,0,0,0,.295-.758,5.559,5.559,0,0,0-.135-1.128,4.8,4.8,0,0,0-.429-1.212,3.221,3.221,0,0,0-.749-.968,1.633,1.633,0,0,0-1.111-.4,1.519,1.519,0,0,0-.909.278,2.507,2.507,0,0,0-.665.724,4.821,4.821,0,0,0-.463.985,10.392,10.392,0,0,0-.3,1.052q-.118.514-.177.943T76.865-73.7Z" transform="translate(785.985 480.62)" fill="#379078"/>
    </g>
</svg>