<svg xmlns="http://www.w3.org/2000/svg" width="441" height="135" viewBox="0 0 441 135">
  <g transform="translate(-813 -63)">
    <path d="M906.97,633.387a12.459,12.459,0,0,1-3.662,9.186,15.292,15.292,0,0,1-20.111.031,12.281,12.281,0,0,1-3.911-9.217V625.5h9.931v13.47q0,5.089,4.034,5.089,3.848,0,3.849-5.089v-9.745q0-6.145-3.476-9.559l-10.428-10.3q-3.911-3.847-3.911-11.3v-6.083a12.451,12.451,0,0,1,3.787-9.249,15.1,15.1,0,0,1,19.862,0,12.454,12.454,0,0,1,3.787,9.249v7.883h-9.869V586.4q0-5.088-3.848-5.089-3.787,0-3.787,5.089v8.752q0,6.145,3.414,9.5l10.428,10.3q3.911,3.911,3.911,11.359Z" transform="translate(221.153 -481.038)" fill="#fff"/>
    <path d="M945.323,635.815h-3.165a14.476,14.476,0,0,1-10.272-3.787,12.087,12.087,0,0,1-4.065-9.186V572.008h-3.228v-2.3h3.228V551.277l9.869-4.469v22.9h7.137v2.3h-7.137v56.421q0,5.092,4.469,5.09h3.165Z" transform="translate(207.193 -471.115)" fill="#fff"/>
    <path d="M989.753,633.387a12.063,12.063,0,0,1-4.065,9.217,15.97,15.97,0,0,1-20.576,0,12.018,12.018,0,0,1-4.1-9.217v-41.4a12.022,12.022,0,0,1,4.1-9.218,15.972,15.972,0,0,1,20.576,0,12.068,12.068,0,0,1,4.065,9.218Zm-9.931,5.586V586.4q0-5.088-4.406-5.089-4.47,0-4.469,5.089v52.574q0,5.089,4.469,5.089Q979.822,644.063,979.822,638.974Z" transform="translate(195.971 -481.038)" fill="#fff"/>
    <path d="M1038.963,599.869h-9.932V586.4q0-4.841-3.041-4.841a5.551,5.551,0,0,0-3.973,2.172v59.711h3.228v2.3h-16.324v-2.3h3.228V581.931h-3.228v-2.3h13.1v1.8a10.327,10.327,0,0,1,7.014-2.421q9.931,0,9.932,11.669Z" transform="translate(181.21 -481.038)" fill="#fff"/>
    <path d="M1088.435,633.387a12.062,12.062,0,0,1-4.066,9.217,15.969,15.969,0,0,1-20.576,0,12.021,12.021,0,0,1-4.1-9.217v-41.4a12.025,12.025,0,0,1,4.1-9.218,15.972,15.972,0,0,1,20.576,0,12.066,12.066,0,0,1,4.066,9.218v21.724h-18.807v25.263q0,5.089,4.469,5.089,4.406,0,4.407-5.089V625.5h9.931Zm-9.931-21.973V586.4q0-5.088-4.407-5.089-4.469,0-4.469,5.089v25.015Z" transform="translate(165.564 -481.038)" fill="#fff"/>
    <path d="M468.777,645.739h-13.1V586.4q0-4.841-3.662-4.841-2.855,0-5.71,3.042a14.8,14.8,0,0,1,1.117,6.083v52.759h3.166v2.3H437.556V586.4q0-4.841-3.724-4.841a6.467,6.467,0,0,0-4.593,2.172v59.711h3.228v2.3H416.142v-2.3h3.228V581.931h-3.228v-2.3h13.1v1.8a10.88,10.88,0,0,1,7.386-2.421q6.144,0,8.814,3.786a12.731,12.731,0,0,1,9.372-3.786q10.8,0,10.8,11.669v52.759h3.165Z" transform="translate(396.858 -481.038)" fill="#fff"/>
    <path d="M526.517,633.387a12.063,12.063,0,0,1-4.065,9.217,15.97,15.97,0,0,1-20.576,0,12.02,12.02,0,0,1-4.1-9.217v-41.4a12.025,12.025,0,0,1,4.1-9.218,15.972,15.972,0,0,1,20.576,0,12.068,12.068,0,0,1,4.065,9.218v21.724H507.71v25.263q0,5.089,4.469,5.089,4.407,0,4.407-5.089V625.5h9.931Zm-9.931-21.973V586.4q0-5.088-4.407-5.089-4.469,0-4.469,5.089v25.015Z" transform="translate(371.704 -481.038)" fill="#fff"/>
    <path d="M580.134,645.739H567.1V586.4q0-4.841-3.724-4.841a6.465,6.465,0,0,0-4.594,2.172v59.711h3.227v2.3H545.686v-2.3h3.228V581.931h-3.228v-2.3h13.1v1.8a10.88,10.88,0,0,1,7.387-2.421q10.8,0,10.8,11.669v52.759h3.165Z" transform="translate(356.943 -481.038)" fill="#fff"/>
    <path d="M708.97,627.958H695v-.686h2.638l-4.035-6.452-5.173,6.452h2.638v.686H683v-.686h2.639l6.932-8.12L685.9,608.9h-2.69v-.686h14.019v.686h-2.69l3.828,6.154,4.966-6.154h-2.638v-.686h8.07v.686h-2.638l-6.673,7.86,6.88,10.511h2.638Zm-6.984-.686L690.243,608.9h-2.12l11.742,18.371Z" transform="translate(281.633 -490.489)" fill="#fff"/>
    <path d="M827.07,608.9h-2.638l-6.881,10.512,6.673,7.86h2.639v.686h-8.071v-.686h2.638l-4.966-6.154-3.828,6.154h2.69v.686H801.307v-.686H804l6.673-10.251-6.932-8.121H801.1v-.686h8.07v.686h-2.638l5.173,6.453,4.035-6.453H813.1v-.686H827.07Zm-9.105,0-11.743,18.371h2.121L820.085,608.9Z" transform="translate(245.244 -490.489)" fill="#fff"/>
    <path d="M798.076,528.676c-.645-.6-1.009.216-1.436.436-5.1,2.62-10.226,5.183-15.224,7.978-3.021,1.689-6.382,2.89-9.173,5.427,3.335.761,6.79-1.053,9.383,1.745h0a5.618,5.618,0,0,0-1.142.75c-14.987,16.225-57.137,58.163-60.427,60.407a9.993,9.993,0,0,0-6.19,4.652,70.6,70.6,0,0,1-10.5,12.937,24.911,24.911,0,0,0-3.511,3.886,6.557,6.557,0,0,1-6.958,3.127c-3.173-.682-4.914.659-6.731,2.469l7.111-.706-11.305,4.369-.773.7,8.545-.847L677.169,640.5l-1.047.948,9.975-.989-14,4.636-1.453,1.317,10.063-1-14.087,4.645-1.16,1.052c3.165,1.185,5.76.481,8.312.507,2.273.023,3.717.559,3.632,3.41-.081,2.685.578,5.392.955,8.434,2.3-1.358,3.409-3.152,4.775-4.646q1.235-1.351,2.467-2.7l.044-9.251,2.426,6.557c.578-.63,1.16-1.255,1.741-1.882l.173-8.9,2.314,6.255c.5-.53,1.014-1.054,1.523-1.579l.041-9.263,2.478,6.7c.338-.338.688-.665,1.03-1l-.121-9.7,2.673,7.226c.036-.034.07-.069.106-.1,2.081-1.933,3.66-4.2.893-7.04-1.1-1.13-2.4-3.072-.993-4.4,4.758-4.519,8.606-9.9,14.125-13.742,3.595-2.5,7.6-5.084,8.753-9.906,2.443-2.313,27.474-26.868,34.727-34.189,8.449-8.527,17.117-16.85,24.942-25.971,2.574,1.064.928,2.99.794,4.486-.109,1.214-1.135,2.321-.56,3.77.313-.133.729-.174.883-.394,5.353-7.65,10-15.726,14.592-23.838A.96.96,0,0,0,798.076,528.676Z" transform="translate(287.037 -465.462)" fill="#fff"/>
    <path d="M663.472,530.953c-.6.64.217,1,.439,1.426,2.639,5.059,5.219,10.152,8.033,15.115,1.7,3,2.911,6.336,5.466,9.108.766-3.312-1.061-6.742,1.756-9.315v0a5.593,5.593,0,0,0,.755,1.134c16.339,14.88,58.575,56.727,60.836,59.993a9.934,9.934,0,0,0,4.684,6.146,70.838,70.838,0,0,1,13.029,10.422,25.041,25.041,0,0,0,3.915,3.485,6.475,6.475,0,0,1,3.149,6.907c-.688,3.15.664,4.879,2.486,6.684l-.711-7.06,4.4,11.223.7.767-.854-8.483,4.527,12.488.955,1.039-1-9.9,4.668,13.9,1.327,1.443-1.005-9.99,4.677,13.985,1.06,1.152c1.193-3.143.484-5.718.51-8.252.024-2.257.563-3.69,3.434-3.605,2.7.08,5.429-.574,8.493-.948-1.367-2.287-3.175-3.384-4.68-4.741q-1.361-1.226-2.723-2.45l-9.318-.044,6.6-2.408c-.634-.573-1.264-1.152-1.9-1.729l-8.966-.172,6.3-2.3c-.535-.5-1.062-1.007-1.591-1.512l-9.328-.04,6.745-2.46c-.34-.337-.67-.684-1.007-1.024l-9.769.12,7.277-2.653c-.033-.036-.069-.069-.1-.105-1.946-2.065-4.229-3.634-7.089-.885-1.138,1.094-3.095,2.378-4.436.986-4.551-4.724-9.97-8.544-13.84-14.024-2.521-3.569-5.12-7.543-9.976-8.689-2.33-2.426-27.058-27.277-34.431-34.478-8.587-8.388-16.97-16.994-26.154-24.761,1.071-2.556,3.01-.922,4.517-.788,1.223.108,2.338,1.126,3.8.556-.134-.311-.175-.723-.4-.877-7.7-5.315-15.837-9.931-24.007-14.487A.976.976,0,0,0,663.472,530.953Z" transform="translate(287.717 -466.141)" fill="#fff"/>
  </g>
</svg>
